<svg xmlns="http://www.w3.org/2000/svg" viewBox="0 0 512 512">
  <path fill="#467fcf" d="M132.27343 501.15662c-60.296903-12.49531-98.538114-44.52809-116.187271-97.32433-8.2155754-24.57632-7.7327523-17.58286-8.6939793-125.92825-1.0889212-122.73853-.8650878-136.74237 2.4055153-150.49799 1.34792-5.66913 2.904491-11.68232 3.459047-13.36264l1.008283-3.05512H497.7145l1.99436 6.79853c3.0486 10.3924 4.62361 18.28991 5.18959 26.02198.28315 3.86813.17385 56.82637-.24289 117.68498l-.7577 110.65201-2.58439 10.78389c-7.60252 31.72309-17.46014 52.69124-33.60737 71.48633-5.40631 6.29284-19.71013 18.64753-28.32645 24.46648-13.69781 9.25071-32.6552 16.74707-53.91941 21.32148-13.46457 2.89653-39.47348 3.5053-151.44322 3.5447l-89.08425.0313-12.65934-2.6234zm110.65679-113.5383c.003-.51575.007-41.14126.01-90.27892.006-100.84967-.7513-90.23383 7.62217-106.93268 8.38532-16.72248 14.2752-23.93949 25.72277-31.51875 12.17201-8.05889 25.861-10.98873 47.38605-10.14197l12.76.50196.60263-8.49001c.33146-4.66951.60265-10.7676.60265-13.55132 0-4.82808-.14043-5.11902-3.04762-6.31393-9.36072-3.84746-25.21268-4.06652-37.99262-.52501-7.93187 2.19803-20.90829 8.03492-26.65857 11.99122-4.92773 3.39037-16.8816 15.50896-22.73972 23.05306l-4.27209 5.5016-.0144-18.16411c-.007-9.99026-.36794-18.72177-.80011-19.40337-.62684-.98863-3.74883-1.10374-15.43699-.56917l-14.65124.6701.46315 42.76697c.25473 23.52183.71855 83.17137 1.03071 132.55452l.56756 89.78754h14.42064c8.98541 0 14.42244-.35344 14.42542-.93773z"/>
  <path fill="#467fcf" d="M139.30639 502.35624c-1.0315-.24844-7.08475-1.69326-13.45165-3.21071-58.063271-13.83845-92.817498-45.04011-110.647057-99.33673-2.116985-6.44689-4.277829-14.25348-4.801877-17.34799-1.5998374-9.44705-2.9670452-99.12534-2.6662653-174.88644l.2848008-71.73627 3.1328145-12.42491 3.132815-12.4249H497.0964l.98494 2.57875c.54172 1.41832 2.11369 7.00952 3.49328 12.42491l2.50833 9.84615-.21435 117.79696c-.23859 131.12503.32889 118.88759-6.62637 142.89169-7.11812 24.56607-18.49336 45.89748-31.92636 59.86985-5.94362 6.18227-19.069 17.28165-26.04962 22.02865-14.97493 10.18337-40.43816 19.55854-61.77671 22.74523-5.42206.80973-39.21832 1.192-121.90476 1.37889-62.92161.14222-115.24689.0553-116.27839-.19313zm103.66156-188.58407c.0233-41.13114.3924-82.71325.82004-92.40471l.77754-17.62082 4.79142-9.85493c10.62495-21.85329 19.36102-31.51028 35.21819-38.93074 9.21549-4.31245 16.77883-5.49121 35.35105-5.50952l16.51722-.0163.59633-4.35066c.32797-2.39286.59632-8.50071.59632-13.57299 0-9.18297-.0114-9.2282-2.66294-10.59939-7.19999-3.72325-25.94986-4.21609-38.12827-1.00219-3.0945.81664-10.69011 3.956-16.87912 6.97636-10.51354 5.13081-11.88309 6.12881-20.84848 15.19238-5.27766 5.33545-10.97436 11.51535-12.65934 13.73311l-3.06361 4.0323-.46886-18.56709-.46886-18.5671-6.56411-.30544c-3.61025-.16799-10.52286-.019-15.36136.33119l-8.79724.63662.59474 81.25123c.32711 44.68818.8595 104.35453 1.18309 132.59189l.58834 51.34066h28.8254l.0425-74.78388zM17.068295 102.78314c3.672828-10.406142 10.950915-24.939447 16.916926-33.780693C54.493036 38.611181 83.825432 19.849393 127.58477 9.133662l10.78389-2.6407433 115.34066-.2996098c114.5893-.297658 115.40481-.2865939 125.18682 1.6984414 14.9688 3.0375747 33.3744 9.4730557 46.68127 16.3220047 24.32135 12.518029 42.1288 29.104918 56.43167 52.563695 5.24933 8.609645 13.14992 25.71709 14.60839 31.63207l.63584 2.57875H14.172311z"/>
</svg>